<?xml version="1.0" standalone="no"?>
<!DOCTYPE svg PUBLIC "-//W3C//DTD SVG 20010904//EN"
 "http://www.w3.org/TR/2001/REC-SVG-20010904/DTD/svg10.dtd">
<svg version="1.0" xmlns="http://www.w3.org/2000/svg"
 width="300.000000pt" height="300.000000pt" viewBox="0 0 300.000000 300.000000"
 preserveAspectRatio="xMidYMid meet">
<metadata>
Created by potrace 1.10, written by Peter Selinger 2001-2011
</metadata>
<g transform="translate(0.000000,300.000000) scale(0.050000,-0.050000)"
fill="#000000" stroke="none">
<path d="M1410 4630 c-1228 -1227 -1424 -1432 -1315 -1372 58 32 2685 2671
2685 2698 0 44 -15 30 -1370 -1326z"/>
<path d="M370 5922 c-91 -57 -296 -274 -286 -304 7 -22 212 165 324 297 46 55
40 56 -38 7z"/>
<path d="M610 5922 c-85 -53 -550 -530 -550 -564 0 -15 139 112 310 282 352
351 354 353 240 282z"/>
<path d="M457 5547 c-228 -228 -410 -422 -403 -433 11 -18 791 745 828 811 45
82 -32 13 -425 -378z"/>
<path d="M578 5440 c-464 -466 -549 -560 -505 -560 18 0 983 959 1030 1025
110 152 -54 6 -525 -465z"/>
<path d="M704 5333 c-346 -345 -626 -638 -622 -650 5 -13 300 269 658 627 357
357 637 650 621 650 -16 0 -311 -282 -657 -627z"/>
<path d="M825 5215 c-410 -410 -745 -758 -745 -775 0 -16 342 312 760 730 706
706 786 790 745 790 -8 0 -350 -335 -760 -745z"/>
<path d="M931 5081 c-484 -484 -873 -886 -864 -894 15 -15 1718 1672 1755
1738 50 91 -72 -25 -891 -844z"/>
<path d="M1065 4995 c-935 -934 -1022 -1025 -996 -1050 12 -13 1906 1868 1974
1960 133 183 -118 -51 -978 -910z"/>
<path d="M1151 4840 c-615 -615 -1112 -1126 -1104 -1134 8 -8 525 496 1149
1120 624 624 1120 1134 1104 1134 -17 0 -533 -504 -1149 -1120z"/>
<path d="M1281 4731 c-676 -676 -1223 -1236 -1214 -1244 15 -15 2418 2372
2455 2438 52 93 -98 -51 -1241 -1194z"/>
<path d="M1517 4507 c-800 -800 -1459 -1472 -1465 -1494 -12 -47 -122 -155
1604 1573 1571 1573 1377 1374 1343 1374 -16 0 -683 -654 -1482 -1453z"/>
<path d="M1760 4270 c-1601 -1601 -1727 -1731 -1687 -1730 20 1 3407 3387
3407 3407 0 39 -166 -123 -1720 -1677z"/>
<path d="M3285 5575 c-417 -413 -603 -615 -566 -615 26 0 903 860 964 945 102
142 -40 24 -398 -330z"/>
<path d="M3890 5922 c-91 -58 -1024 -1002 -990 -1002 17 0 264 234 550 520
286 286 515 520 510 520 -6 0 -37 -17 -70 -38z"/>
<path d="M3581 5391 c-313 -313 -563 -576 -555 -584 15 -15 1154 1109 1154
1138 0 40 -68 -23 -599 -554z"/>
<path d="M3760 5331 c-592 -591 -725 -735 -588 -636 71 52 1248 1231 1248
1251 0 40 -80 -35 -660 -615z"/>
<path d="M3910 5259 c-386 -385 -719 -729 -740 -765 -55 -94 46 1 790 746 710
712 718 720 679 720 -15 0 -344 -315 -729 -701z"/>
<path d="M3611 4721 c-681 -682 -1232 -1246 -1224 -1254 8 -9 579 549 1269
1239 690 690 1241 1254 1224 1254 -16 0 -587 -558 -1269 -1239z"/>
<path d="M4085 4954 c-558 -558 -1002 -1014 -985 -1014 38 0 2033 1994 2014
2013 -8 8 -471 -442 -1029 -999z"/>
<path d="M4375 5025 c-945 -941 -1120 -1125 -1073 -1125 26 0 1953 1911 2021
2005 126 174 -106 -41 -948 -880z"/>
<path d="M4481 4891 c-588 -589 -1062 -1076 -1054 -1085 8 -8 503 474 1099
1070 596 596 1071 1084 1054 1084 -16 0 -510 -481 -1099 -1069z"/>
<path d="M4675 4845 c-618 -618 -1117 -1130 -1108 -1138 8 -9 520 490 1138
1108 618 618 1117 1130 1109 1138 -9 8 -521 -490 -1139 -1108z"/>
<path d="M100 5890 c-26 -27 -41 -56 -33 -63 14 -15 113 69 113 96 0 31 -33
17 -80 -33z"/>
<path d="M1644 4395 c-1428 -1426 -1601 -1605 -1580 -1626 4 -4 723 708 1597
1582 874 874 1576 1589 1559 1589 -16 0 -725 -695 -1576 -1545z"/>
<path d="M4811 4741 c-627 -627 -1133 -1146 -1125 -1154 15 -15 2180 2133
2257 2238 107 147 -78 -30 -1132 -1084z"/>
<path d="M4862 4572 c-630 -631 -1063 -1079 -1058 -1095 6 -16 421 386 1048
1013 1154 1157 1147 1150 1106 1150 -16 0 -509 -481 -1096 -1068z"/>
<path d="M4923 4393 c-565 -565 -1019 -1033 -1009 -1039 24 -15 2053 2014
2043 2044 -4 12 -469 -440 -1034 -1005z"/>
<path d="M4981 4211 c-533 -533 -963 -976 -954 -984 15 -15 1898 1852 1935
1918 51 92 -80 -32 -981 -934z"/>
<path d="M5044 4052 c-804 -805 -942 -952 -890 -952 18 0 1694 1671 1768 1764
192 238 -79 -12 -878 -812z"/>
<path d="M2620 4778 c-60 -24 -1111 -1065 -1151 -1142 -37 -69 -37 -183 -1
-252 65 -123 1118 -1140 1196 -1154 198 -37 368 145 314 337 -12 44 -154 199
-458 503 l-440 440 442 442 c469 469 488 497 456 644 -33 153 -207 241 -358
182z m126 -276 c-12 -48 -97 -144 -113 -128 -7 7 -13 2 -13 -11 0 -12 -119
-144 -265 -292 -285 -289 -355 -366 -355 -390 0 -8 -18 -31 -40 -51 -22 -20
-36 -41 -31 -46 5 -5 1 -26 -10 -47 -14 -26 -14 -37 2 -37 12 0 19 -16 16 -35
-7 -44 44 -125 79 -125 14 0 21 -9 14 -19 -12 -21 58 -101 88 -101 11 0 25
-26 32 -59 9 -40 27 -61 56 -65 29 -4 42 -18 38 -41 -3 -20 1 -33 10 -31 27 8
126 -67 126 -95 0 -14 26 -37 57 -51 40 -18 55 -36 48 -62 -7 -24 1 -36 24
-36 19 0 28 -9 20 -22 -8 -13 4 -19 34 -15 25 4 47 -2 47 -13 2 -37 59 -110
87 -110 18 0 24 -14 17 -40 -6 -22 -2 -35 8 -29 10 6 18 -6 18 -27 0 -29 -13
-37 -55 -34 -100 7 -107 10 -101 45 3 19 -7 35 -24 35 -16 1 -28 12 -26 24 3
13 -12 18 -35 12 -27 -7 -39 -1 -39 22 0 38 -64 107 -92 98 -10 -3 -29 21 -42
54 -12 33 -36 60 -53 60 -17 0 -36 18 -43 40 -7 22 -20 36 -29 31 -9 -6 -15 5
-14 24 2 24 -9 33 -35 28 -27 -4 -34 3 -25 25 7 21 1 32 -18 32 -17 0 -36 14
-42 31 -7 17 -24 27 -38 21 -17 -6 -31 12 -39 47 -8 39 -28 61 -61 70 -27 6
-49 24 -49 39 0 15 -14 33 -31 40 -17 6 -27 20 -20 30 6 9 -1 16 -14 15 -14
-2 -28 6 -31 17 -4 11 -21 36 -39 55 -17 19 -23 36 -13 36 10 1 -2 10 -27 20
-24 9 -41 29 -36 43 4 14 13 51 20 81 6 31 25 55 43 55 17 0 26 7 20 16 -14
23 377 408 396 389 8 -8 12 -2 9 13 -4 16 16 41 43 55 28 15 42 27 32 27 -10
0 -2 18 18 40 19 21 43 35 51 29 9 -5 23 1 31 14 9 14 6 18 -9 9 -13 -8 -23
-6 -23 5 0 11 27 32 60 46 33 15 65 42 71 61 6 19 28 39 49 46 21 7 44 30 50
51 7 22 21 35 30 29 9 -6 23 8 30 31 8 24 25 37 40 32 15 -6 31 2 37 17 16 41
90 14 79 -28z"/>
<path d="M5091 3861 c-461 -462 -832 -847 -824 -855 8 -8 399 370 869 840 470
470 840 854 824 854 -17 0 -408 -378 -869 -839z"/>
<path d="M5165 3695 c-432 -432 -785 -799 -785 -815 0 -30 1545 1499 1582
1565 50 91 -66 -19 -797 -750z"/>
<path d="M5219 3510 c-695 -696 -793 -801 -706 -753 110 61 1492 1483 1441
1483 -3 0 -333 -329 -735 -730z"/>
<path d="M5241 3310 c-618 -620 -776 -796 -607 -674 90 66 1326 1315 1326
1341 0 50 -54 0 -719 -667z"/>
<path d="M3079 3761 c-101 -30 -143 -66 -182 -152 -73 -166 -53 -196 443 -690
l437 -434 -428 -427 c-471 -469 -514 -530 -470 -665 42 -127 148 -199 276
-188 l108 9 550 548 c793 791 790 643 32 1402 -316 317 -592 581 -615 588 -80
23 -101 24 -151 9z m98 -235 c-15 -19 -17 -28 -3 -20 13 8 29 5 37 -7 7 -12
36 -30 64 -41 28 -10 45 -25 38 -32 -18 -18 28 -68 50 -54 10 6 16 -1 12 -16
-3 -14 6 -24 19 -21 13 2 43 -23 66 -55 24 -33 55 -60 69 -60 18 0 23 -15 16
-43 -7 -27 -4 -38 10 -30 11 7 32 -1 45 -17 14 -17 37 -30 52 -30 16 0 27 -7
26 -15 -7 -41 5 -65 32 -65 17 0 30 -10 30 -21 0 -12 9 -16 20 -9 11 7 20 0
20 -16 0 -33 78 -109 97 -94 7 6 16 -10 19 -35 4 -25 20 -45 35 -45 16 0 29
-9 29 -20 0 -11 14 -20 30 -20 17 0 30 -13 30 -30 0 -16 9 -30 20 -30 11 0 20
-14 20 -30 0 -17 10 -28 22 -25 12 3 44 -29 70 -70 27 -41 39 -75 28 -75 -11
0 -20 -10 -20 -21 0 -12 9 -16 20 -9 11 7 20 0 20 -16 0 -25 -935 -973 -1002
-1016 -43 -27 -64 -21 -50 13 6 18 3 26 -8 19 -11 -7 -20 -3 -20 9 0 11 8 21
18 21 10 0 14 16 9 36 -9 33 127 184 167 184 9 0 48 34 86 75 39 41 52 61 30
45 -37 -28 -38 -27 -12 5 22 29 33 31 58 10 25 -20 28 -20 17 0 -9 15 -5 26
11 27 21 1 21 3 0 12 -20 7 -20 16 -3 38 13 15 31 23 41 17 10 -6 12 4 4 23
-9 24 -5 30 11 20 12 -8 23 -5 23 7 0 11 15 21 33 21 19 0 28 5 22 12 -15 15
47 77 94 95 20 8 31 20 24 27 -7 7 5 25 27 40 22 16 40 42 40 58 0 17 8 25 19
19 10 -6 24 -3 30 7 6 11 2 25 -9 32 -20 12 48 151 81 165 29 14 -7 125 -41
125 -31 0 -73 80 -64 123 1 7 -13 11 -32 10 -21 -2 -33 10 -31 33 2 23 -7 33
-24 26 -17 -6 -23 0 -16 19 8 20 -2 29 -31 29 -24 0 -49 15 -56 33 -17 45 -80
107 -94 92 -6 -6 -17 6 -25 27 -15 43 -86 118 -88 94 -1 -9 -11 7 -23 34 -12
28 -21 57 -19 66 2 9 -8 14 -22 13 -54 -8 -71 3 -93 56 -13 31 -43 65 -68 75
-24 11 -45 31 -46 45 -2 14 -4 39 -5 56 -2 17 -12 26 -23 19 -31 -19 -48 47
-20 80 14 17 38 30 55 30 26 0 26 -5 2 -34z"/>
<path d="M5276 3104 c-369 -371 -683 -696 -696 -724 -26 -53 1329 1285 1363
1347 50 91 -35 11 -667 -623z"/>
<path d="M2580 3450 c-63 -64 -96 -110 -78 -110 27 0 130 97 197 185 56 75
-16 30 -119 -75z"/>
<path d="M4210 1800 c-957 -957 -1727 -1740 -1710 -1740 29 0 3366 3319 3443
3425 110 152 -126 -78 -1733 -1685z"/>
<path d="M669 2958 c-553 -550 -625 -628 -601 -653 13 -13 986 947 1116 1101
208 245 7 71 -515 -448z"/>
<path d="M2660 3290 c-37 -39 -59 -70 -48 -70 26 0 138 116 125 129 -5 6 -40
-21 -77 -59z"/>
<path d="M674 2724 c-338 -339 -614 -630 -614 -645 0 -16 283 255 630 601 347
346 630 637 630 645 0 41 -76 -30 -646 -601z"/>
<path d="M4412 1775 c-1627 -1628 -1712 -1715 -1670 -1715 27 0 3071 3028
3181 3165 198 246 -153 -90 -1511 -1450z"/>
<path d="M735 2545 c-360 -360 -655 -669 -655 -685 0 -16 301 272 670 640 369
368 670 677 670 685 0 40 -76 -30 -685 -640z"/>
<path d="M2752 3150 c-18 -27 -25 -50 -16 -50 9 0 38 23 64 50 36 39 40 50 16
50 -17 0 -46 -22 -64 -50z"/>
<path d="M789 2361 c-682 -683 -756 -761 -715 -761 27 0 1446 1429 1446 1456
0 37 27 63 -731 -695z"/>
<path d="M2870 3040 c-37 -41 -31 -75 9 -51 30 19 66 91 45 91 -10 0 -34 -18
-54 -40z"/>
<path d="M4430 1560 c-825 -825 -1486 -1500 -1470 -1500 17 0 705 675 1530
1500 825 825 1486 1500 1470 1500 -17 0 -705 -675 -1530 -1500z"/>
<path d="M854 2205 c-721 -720 -811 -815 -787 -839 14 -13 1573 1547 1573
1574 0 45 -59 -10 -786 -735z"/>
<path d="M909 2019 c-456 -455 -829 -842 -829 -859 0 -16 380 350 844 814 464
464 838 851 830 859 -8 8 -388 -358 -845 -814z"/>
<path d="M3100 2790 c-26 -27 -42 -54 -37 -60 5 -5 36 17 67 50 32 33 48 60
37 60 -11 0 -41 -22 -67 -50z"/>
<path d="M4565 1455 c-1284 -1285 -1477 -1485 -1330 -1378 70 51 2745 2729
2745 2749 0 40 -133 -89 -1415 -1371z"/>
<path d="M961 1831 c-489 -489 -883 -896 -874 -904 15 -15 1738 1692 1775
1758 51 92 -74 -27 -901 -854z"/>
<path d="M3192 2658 c-81 -95 -61 -115 28 -28 90 88 91 90 52 90 -16 0 -52
-28 -80 -62z"/>
<path d="M3255 2485 c-74 -75 -135 -148 -135 -163 0 -15 64 36 143 112 78 77
139 151 135 163 -5 13 -69 -37 -143 -112z"/>
<path d="M1035 1685 c-889 -887 -972 -974 -946 -1001 13 -13 1845 1810 1887
1878 81 128 -118 -57 -941 -877z"/>
<path d="M4670 1318 c-704 -705 -1253 -1268 -1220 -1251 58 29 2530 2490 2530
2519 0 40 -125 -81 -1310 -1268z"/>
<path d="M1094 1505 c-902 -900 -1031 -1035 -1010 -1056 4 -4 466 451 1027
1012 560 560 1006 1019 989 1019 -16 0 -469 -439 -1006 -975z"/>
<path d="M2270 1271 c-1078 -1069 -1328 -1331 -1141 -1198 117 83 2401 2407
2366 2407 -3 0 -555 -544 -1225 -1209z"/>
<path d="M1142 1313 c-587 -588 -1064 -1078 -1059 -1091 4 -12 487 458 1075
1045 587 588 1064 1078 1059 1091 -4 12 -487 -458 -1075 -1045z"/>
<path d="M4829 1259 c-1071 -1071 -1185 -1190 -1161 -1213 12 -13 2193 2153
2256 2240 135 188 -106 -38 -1095 -1027z"/>
<path d="M1229 1159 c-604 -604 -1086 -1099 -1070 -1099 56 0 2205 2163 2177
2191 -4 4 -502 -487 -1107 -1092z"/>
<path d="M1405 1115 c-564 -564 -1025 -1032 -1025 -1040 0 -49 135 79 1036
980 1081 1082 1084 1085 1042 1085 -15 0 -489 -461 -1053 -1025z"/>
<path d="M1861 1091 c-578 -578 -1032 -1045 -1008 -1039 39 11 2087 2045 2087
2074 0 38 -104 -62 -1079 -1035z"/>
<path d="M4915 1105 c-946 -946 -1041 -1045 -1000 -1045 19 0 2032 2012 2042
2040 20 61 -116 -69 -1042 -995z"/>
<path d="M1610 1080 c-549 -549 -992 -1005 -983 -1013 8 -9 465 435 1016 986
551 551 993 1007 983 1013 -10 7 -468 -437 -1016 -986z"/>
<path d="M5035 984 c-849 -849 -940 -944 -901 -944 20 0 1804 1782 1828 1825
51 92 -76 -29 -927 -881z"/>
<path d="M5194 913 c-871 -875 -884 -888 -814 -853 53 26 1441 1398 1543 1525
172 213 -59 1 -729 -672z"/>
<path d="M1980 750 c-379 -379 -676 -690 -660 -690 30 0 1380 1336 1380 1365
0 40 -79 -34 -720 -675z"/>
<path d="M5266 755 c-620 -618 -692 -695 -651 -695 11 0 1272 1250 1363 1351
5 5 -4 9 -19 9 -15 0 -327 -299 -693 -665z"/>
<path d="M2151 681 c-330 -330 -593 -606 -585 -614 20 -20 1201 1161 1192
1190 -5 13 -278 -247 -607 -576z"/>
<path d="M5391 641 c-308 -308 -553 -566 -545 -574 15 -15 1081 1034 1116
1098 48 88 -49 -2 -571 -524z"/>
<path d="M2310 600 c-297 -297 -527 -540 -511 -540 30 0 1028 981 1063 1045
48 87 -47 0 -552 -505z"/>
<path d="M2539 609 c-448 -447 -541 -549 -500 -549 24 0 841 799 925 905 156
197 -4 62 -425 -356z"/>
<path d="M2756 585 c-457 -453 -570 -576 -483 -528 64 35 1018 1003 989 1003
-15 0 -243 -214 -506 -475z"/>
<path d="M5500 510 c-247 -247 -437 -450 -421 -450 29 0 792 746 864 845 94
130 -21 28 -443 -395z"/>
<path d="M5617 402 c-175 -176 -317 -324 -317 -330 0 -39 69 19 325 273 331
329 373 375 335 375 -15 0 -169 -143 -343 -318z"/>
<path d="M5731 281 c-110 -110 -192 -206 -184 -214 14 -15 413 369 413 398 0
37 -43 3 -229 -184z"/>
<path d="M5870 177 c-93 -85 -119 -134 -52 -98 39 21 175 181 153 181 -6 0
-52 -37 -101 -83z"/>
</g>
</svg>
